<svg width="117" height="145" viewBox="0 0 117 145" fill="none" xmlns="http://www.w3.org/2000/svg">
<g clip-path="url(#clip0_134_858)" filter="url(#filter0_d_134_858)">
<path d="M83.2518 40.5477C83.6658 40.5492 84.0187 40.7178 84.3105 41.0537C84.6023 41.3895 84.7474 41.7941 84.7457 42.2673C84.744 42.7405 84.5961 43.144 84.3019 43.4778C84.0078 43.8116 83.6537 43.9777 83.2396 43.9762L83.0638 43.9756L81.6848 52.8369C81.6208 53.2474 81.4478 53.586 81.1656 53.8529C80.8834 54.1198 80.5626 54.2525 80.2032 54.2513L65.2033 54.1982C64.8439 54.1969 64.5241 54.0618 64.2438 53.793C63.9635 53.5241 63.7928 53.1842 63.7318 52.7733L62.4155 43.9025L62.2398 43.9019C61.8257 43.9004 61.4728 43.7318 61.181 43.3959C60.8892 43.06 60.7442 42.6555 60.7458 42.1823C60.7475 41.7091 60.8954 41.3056 61.1896 40.9718C61.4837 40.638 61.8378 40.4719 62.2519 40.4733L83.2518 40.5477ZM66.3975 51.2024C66.6007 51.1852 66.771 51.0854 66.9084 50.9028C67.0457 50.7203 67.107 50.5129 67.0922 50.2807L66.7369 44.708C66.7221 44.4758 66.6349 44.2813 66.4753 44.1245C66.3157 43.9677 66.1343 43.8978 65.9311 43.915C65.728 43.9321 65.5577 44.0319 65.4203 44.2145C65.2829 44.397 65.2217 44.6044 65.2365 44.8366L65.5917 50.4093C65.6066 50.6326 65.686 50.8204 65.83 50.9727C65.974 51.125 66.1436 51.2015 66.3389 51.2022L66.3975 51.2024ZM71.2169 50.3623L71.2367 44.7909C71.2375 44.5588 71.164 44.3576 71.0161 44.1874C70.8683 44.0173 70.6928 43.9318 70.4897 43.9311C70.2866 43.9304 70.1105 44.0146 69.9615 44.1837C69.8124 44.3528 69.7375 44.5534 69.7367 44.7856L69.7169 50.357C69.7161 50.5891 69.7896 50.7903 69.9375 50.9604C70.0853 51.1306 70.2608 51.216 70.4639 51.2168C70.667 51.2175 70.8431 51.1333 70.9921 50.9642C71.1412 50.7951 71.2161 50.5944 71.2169 50.3623ZM75.7169 50.3782L75.7366 44.8068C75.7375 44.5747 75.664 44.3735 75.5161 44.2034C75.3683 44.0332 75.1928 43.9478 74.9897 43.947C74.7866 43.9463 74.6105 44.0305 74.4614 44.1996C74.3124 44.3687 74.2375 44.5694 74.2366 44.8015L74.2169 50.3729C74.2161 50.6051 74.2896 50.8062 74.4374 50.9764C74.5853 51.1465 74.7608 51.232 74.9639 51.2327C75.167 51.2334 75.3431 51.1492 75.4921 50.9801C75.6412 50.811 75.7161 50.6104 75.7169 50.3782ZM79.8416 50.4598L80.2364 44.8897C80.2528 44.6576 80.193 44.4498 80.0569 44.2663C79.9209 44.0828 79.7513 43.9818 79.5482 43.9632C79.3452 43.9446 79.1633 44.0132 79.0026 44.1688C78.8419 44.3245 78.7533 44.5184 78.7369 44.7505L78.3421 50.3206C78.3257 50.5526 78.3855 50.7604 78.5216 50.944C78.6576 51.1275 78.8272 51.2285 79.0303 51.2471L79.0889 51.2473C79.2842 51.248 79.4544 51.1727 79.5994 51.0214C79.7445 50.8702 79.8252 50.683 79.8416 50.4598ZM66.3526 34.1128L65.2432 39.6268L63.6963 39.6213L64.9008 33.7193C65.0521 32.9341 65.402 32.2947 65.9506 31.8011C66.4992 31.3075 67.1251 31.062 67.8282 31.0645L69.7852 31.0714C69.7861 30.8392 69.861 30.6386 70.01 30.4695C70.1591 30.3004 70.3351 30.2162 70.5383 30.2169L75.0382 30.2328C75.2414 30.2336 75.4168 30.319 75.5647 30.4892C75.7125 30.6593 75.786 30.8605 75.7852 31.0926L77.7422 31.0996C78.4453 31.102 79.0695 31.352 79.6146 31.8495C80.1597 32.347 80.5051 32.9888 80.6507 33.7751L81.8134 39.6855L80.2665 39.68L79.1962 34.1583C79.1117 33.7651 78.9351 33.4431 78.6665 33.1921C78.3978 32.9412 78.0877 32.8151 77.7362 32.8138L75.7791 32.8069C75.7783 33.039 75.7034 33.2397 75.5543 33.4088C75.4053 33.5779 75.2292 33.6621 75.0261 33.6614L70.5261 33.6454C70.323 33.6447 70.1475 33.5593 69.9997 33.3891C69.8519 33.219 69.7783 33.0178 69.7792 32.7857L67.8221 32.7787C67.4706 32.7775 67.1596 32.9014 66.8892 33.1504C66.6188 33.3995 66.4399 33.7203 66.3526 34.1128Z" fill="#FFA451"/>
</g>
<path d="M52.1745 67.9119C52.144 68.0518 52.2037 68.152 52.3537 68.1526L52.7537 68.154C52.8337 68.1543 52.9239 68.0846 52.9342 68.0146L53.8224 62.8677C53.8324 62.8678 53.8524 62.8678 53.8624 62.8679L55.7037 68.1544C55.7235 68.2145 55.8133 68.2648 55.8733 68.265L56.0533 68.2657C56.1133 68.2659 56.2035 68.2162 56.2237 68.1563L58.0824 62.8828C58.0924 62.8828 58.1124 62.8829 58.1224 62.883L58.9941 68.0361C59.0139 68.1061 59.0936 68.1764 59.1736 68.1767L59.5736 68.1781C59.7236 68.1787 59.784 68.0789 59.7545 67.9388L58.4883 61.2142C58.4686 61.1342 58.3888 61.0739 58.3088 61.0736L58.1488 61.073C58.0788 61.0728 57.9986 61.1225 57.9784 61.1824L56.0089 66.6855C55.9889 66.6854 55.9789 66.6854 55.9589 66.6853L53.9984 61.1683C53.9786 61.1083 53.8988 61.058 53.8288 61.0577L53.6688 61.0572C53.5888 61.0569 53.5086 61.1166 53.4883 61.1965L52.1745 67.9119ZM62.1107 68.1771L60.8209 70.9326C60.7504 71.0723 60.83 71.1826 60.98 71.1831L61.35 71.1844C61.42 71.1847 61.4902 71.1249 61.5204 71.065L64.614 64.4259C64.6844 64.2962 64.6148 64.1959 64.4648 64.1954L64.0848 64.1941C64.0148 64.1938 63.9446 64.2436 63.9144 64.3035L62.5036 67.3585L62.4936 67.3585L61.0244 64.2932C60.9946 64.2331 60.9348 64.1829 60.8548 64.1826L60.4148 64.1811C60.2648 64.1805 60.2045 64.2703 60.264 64.4005L62.1107 68.1771ZM67.7063 68.0169C67.7059 68.1169 67.7956 68.2072 67.8956 68.2076L68.1056 68.2083C68.1956 68.2087 68.2559 68.1389 68.2762 68.0489L68.3371 67.7792C68.3371 67.7792 68.8152 68.3109 69.5652 68.3135C70.5852 68.3171 71.3886 67.36 71.3927 66.21C71.3968 65.04 70.6801 64.1174 69.4801 64.1132C68.8201 64.1108 68.4092 64.3694 68.4092 64.3694L68.4197 61.3994C68.4201 61.2994 68.3304 61.2091 68.2304 61.2087L67.9204 61.2076C67.8204 61.2073 67.7301 61.297 67.7297 61.397L67.7063 68.0169ZM68.4098 67.0194L68.4169 65.0194C68.4169 65.0194 68.8377 64.7809 69.3877 64.7829C70.2577 64.7859 70.6955 65.4175 70.6927 66.2175C70.6899 66.9975 70.2275 67.6858 69.4975 67.6833C68.7775 67.6807 68.4098 67.0194 68.4098 67.0194ZM72.2341 67.0129C72.2312 67.8129 72.7594 68.3248 73.4594 68.3273C74.0794 68.3295 74.4905 68.0209 74.7013 67.8117L74.7803 68.082C74.81 68.1721 74.8398 68.2322 74.9498 68.2326L75.1398 68.2332C75.2398 68.2336 75.3301 68.1439 75.3305 68.0439L75.3383 65.8239C75.3425 64.6539 75.0943 64.1331 74.0743 64.1294C73.3243 64.1268 72.7435 64.3547 72.6834 64.3845C72.5933 64.4242 72.533 64.484 72.5726 64.6041L72.6517 64.8544C72.6814 64.9445 72.7412 64.9947 72.8414 64.9551C73.0216 64.8857 73.4921 64.7374 74.0421 64.7393C74.6121 64.7414 74.7009 65.0817 74.6883 65.8216C74.6883 65.8216 74.2688 65.6901 73.8388 65.6886C72.8088 65.685 72.2368 66.253 72.2341 67.0129ZM72.8741 67.0152C72.8759 66.4952 73.2769 66.2166 73.8369 66.2186C74.2769 66.2202 74.5566 66.3112 74.6763 66.3816L74.6735 67.1716C74.5027 67.421 74.0716 67.7295 73.5716 67.7277C73.1416 67.7262 72.8727 67.4152 72.8741 67.0152ZM76.5302 67.8882C76.7496 68.0589 77.1586 68.3404 77.8286 68.3428C78.6486 68.3457 79.2106 67.7977 79.2126 67.2177C79.2152 66.4977 78.5963 66.1855 77.9074 65.853C77.4982 65.6516 77.1687 65.5004 77.1699 65.1704C77.1705 65.0004 77.2913 64.7708 77.7413 64.7724C78.1113 64.7737 78.5404 65.0153 78.5404 65.0153C78.6302 65.0656 78.7703 65.0361 78.8307 64.9263L78.9113 64.7666C78.9717 64.6568 78.9422 64.5167 78.8524 64.4564C78.6629 64.3257 78.2635 64.1443 77.7435 64.1424C76.8135 64.1391 76.4713 64.7579 76.4698 65.1779C76.4674 65.8579 77.0762 66.2101 77.6053 66.472C78.1842 66.764 78.4837 66.9251 78.4824 67.2751C78.4815 67.5451 78.2407 67.7542 77.8307 67.7528C77.3207 67.751 76.892 67.3994 76.892 67.3994C76.7822 67.3291 76.6721 67.3487 76.6219 67.4285C76.5917 67.4784 76.5212 67.6181 76.481 67.678C76.4507 67.7479 76.4804 67.848 76.5302 67.8882ZM80.2941 68.0615C80.2937 68.1615 80.3834 68.2518 80.4834 68.2522L80.7934 68.2533C80.8934 68.2536 80.9837 68.1639 80.9841 68.0639L80.9905 66.244L83.0137 68.1811C83.0536 68.2113 83.1234 68.2615 83.2134 68.2618L83.7634 68.2638C83.9334 68.2644 83.944 68.0844 83.8643 68.0141L81.6613 66.0263L83.5667 64.5131C83.6369 64.4533 83.6476 64.2633 83.4776 64.2627L82.9376 64.2608C82.8576 64.2606 82.7774 64.3103 82.6971 64.38L80.9922 65.774L81.0075 61.444C81.0079 61.344 80.9182 61.2537 80.8182 61.2533L80.5082 61.2522C80.4082 61.2519 80.3179 61.3415 80.3175 61.4415L80.2941 68.0615ZM84.4048 66.266C84.4007 67.416 85.1473 68.3687 86.3573 68.373C87.0473 68.3754 87.5883 68.1073 87.8289 67.9182C87.9793 67.8087 87.9395 67.7486 87.8699 67.6583C87.8101 67.5781 87.7604 67.5079 87.7007 67.4277C87.6211 67.3174 87.5609 67.3672 87.4206 67.4467C87.1901 67.5859 86.8496 67.7447 86.4296 67.7432C85.7196 67.7407 85.1318 67.1086 85.0942 66.4385L87.9741 66.4487C88.0641 66.449 88.1444 66.3793 88.1547 66.2793C88.165 66.2094 88.1755 66.0794 88.1757 66.0094C88.1794 64.9594 87.4222 64.1767 86.3722 64.173C85.1622 64.1687 84.4088 65.136 84.4048 66.266ZM85.1061 65.8785C85.1783 65.2588 85.7 64.7806 86.37 64.783C86.98 64.7852 87.4582 65.3068 87.4861 65.887L85.1061 65.8785ZM89.5215 67.2842C89.5193 67.9042 89.6376 68.3846 90.4376 68.3874C90.9076 68.3891 91.4485 68.141 91.5888 68.0515C91.6991 67.9819 91.7293 67.922 91.6597 67.8017L91.5106 67.5512C91.4609 67.471 91.4211 67.4109 91.2708 67.4904C91.1405 67.5599 90.79 67.7087 90.54 67.7078C90.31 67.707 90.2103 67.6266 90.2117 67.2266L90.22 64.8866L91.38 64.8907C91.49 64.8911 91.5703 64.8014 91.5707 64.7014L91.5715 64.4814C91.5718 64.3714 91.4921 64.2911 91.3821 64.2907L90.2221 64.2866L90.2261 63.1566C90.2265 63.0566 90.1468 62.9664 90.0468 62.966L89.7267 62.9849C89.6267 62.9845 89.5364 63.0742 89.5361 63.1742L89.5321 64.2842L89.0221 64.2824C88.9121 64.282 88.8319 64.3617 88.8315 64.4717L88.8307 64.6917C88.8303 64.7917 88.91 64.882 89.02 64.8824L89.53 64.8842L89.5215 67.2842Z" fill="#27214D"/>
<defs>
<filter id="filter0_d_134_858" x="0.703369" y="0.182373" width="144.085" height="144.085" filterUnits="userSpaceOnUse" color-interpolation-filters="sRGB">
<feFlood flood-opacity="0" result="BackgroundImageFix"/>
<feColorMatrix in="SourceAlpha" type="matrix" values="0 0 0 0 0 0 0 0 0 0 0 0 0 0 0 0 0 0 127 0" result="hardAlpha"/>
<feOffset dy="30"/>
<feGaussianBlur stdDeviation="30"/>
<feColorMatrix type="matrix" values="0 0 0 0 0 0 0 0 0 0 0 0 0 0 0 0 0 0 0.2 0"/>
<feBlend mode="normal" in2="BackgroundImageFix" result="effect1_dropShadow_134_858"/>
<feBlend mode="normal" in="SourceGraphic" in2="effect1_dropShadow_134_858" result="shape"/>
</filter>
<clipPath id="clip0_134_858">
<rect width="24" height="24" fill="white" transform="translate(60.7883 30.1824) rotate(0.202891)"/>
</clipPath>
</defs>
</svg>
